# xmcd CD database file
#
# Track frame offsets:
#	150
#	18700
#	33599
#	54139
#	71856
#	89778
#	106677
#	122879
#	137196
#	158651
#	173358
#
# Disc length: 2532 seconds
#
# Revision: 0
# Processed by: cddbd v1.5.2PL0 Copyright (c) Steve Scherf et al.
# Submitted via: CDex 1.70beta2
#
DISCID=9109e20b
DTITLE=Gian Maria Testa - Extra-Muros
DYEAR=1996
DGENRE=Jazz
TTITLE0=01. Per Accompagnarti
TTITLE1=02. Un po' di la' del mare
TTITLE2=03. Come un'america
TTITLE3=04. Cavalli di Frisia
TTITLE4=05. Il mio Gallo
TTITLE5=06. Joking Lady
TTITLE6=07. Il viaggio
TTITLE7=08. Via da quest'avventura
TTITLE8=09. La ca sla Colin-A
TTITLE9=10. Extra-muros
TTITLE10=11. Canto
EXTD=YEAR: 1996
EXTT0=
EXTT1=
EXTT2=
EXTT3=
EXTT4=
EXTT5=
EXTT6=
EXTT7=
EXTT8=
EXTT9=
EXTT10=
PLAYORDER=
